<svg width="94" height="108" viewBox="0 0 94 108" fill="none" xmlns="http://www.w3.org/2000/svg">
<path d="M58.6667 48C58.6667 54.4 50.3333 59.2 50.3333 64H43.6667C43.6667 59.2 35.3333 54.4 35.3333 48C35.3333 41.824 40.5667 36.8 47 36.8C53.4333 36.8 58.6667 41.824 58.6667 48ZM50.3333 67.2H43.6667V72H50.3333V67.2ZM70.3333 46.4C70.3333 51.776 68.3667 56.672 65.0667 60.544L69.8 65.088C74.2667 60.064 77 53.536 77 46.4C77 37.632 72.9 29.792 66.4667 24.512L61.7333 29.056C66.9667 33.152 70.3333 39.424 70.3333 46.4ZM60.3333 20.8L47 8V17.6C30.4333 17.6 17 30.496 17 46.4C17 53.536 19.7333 60.064 24.2 65.088L28.9333 60.544C25.6333 56.672 23.6667 51.776 23.6667 46.4C23.6667 34.048 34.1333 24 47 24V33.6L60.3333 20.8Z" fill="#D7D7D7"/>
</svg>
