<svg width="94" height="94" viewBox="0 0 94 94" fill="none" xmlns="http://www.w3.org/2000/svg">
<path d="M54.5 54.4765C59.519 54.4765 63.5704 50.4251 63.5704 45.4061C63.5704 40.3872 59.519 36.3357 54.5 36.3357C49.481 36.3357 45.4296 40.3872 45.4296 45.4061C45.4296 50.4251 49.481 54.4765 54.5 54.4765ZM54.5 57.5C48.9368 57.5 43.7365 59.0117 39.292 61.6422C37.4477 62.7004 36.3592 64.7261 36.3592 66.8425V72.6173H72.6408V66.8425C72.6408 64.7261 71.5524 62.7306 69.708 61.6422C65.2635 59.0117 60.0632 57.5 54.5 57.5ZM82.4066 45.8597L88 43.5316C84.3114 34.7333 77.2667 27.6584 68.4684 24L66.1403 29.5934C73.4571 32.6773 79.3227 38.5429 82.4066 45.8597ZM42.8597 29.5934L40.5316 24C31.7333 27.6886 24.6886 34.7333 21 43.5316L26.5934 45.8597C29.6773 38.5429 35.5429 32.6773 42.8597 29.5934ZM26.5934 69.1403L21 71.4684C24.6886 80.2667 31.7333 87.3416 40.5316 91L42.8597 85.4066C35.5429 82.3227 29.6773 76.4571 26.5934 69.1403ZM66.1403 85.4066L68.4684 91C77.2667 87.3114 84.3416 80.2667 88 71.4684L82.4066 69.1403C79.3227 76.4571 73.4571 82.3227 66.1403 85.4066Z" fill="#D9D9D9"/>
</svg>
