<svg width="48" height="40" viewBox="0 0 48 40" fill="none" xmlns="http://www.w3.org/2000/svg">
<path d="M36 39.5417V30.4167H28.8V24.3333H36V15.2083H40.8V24.3333H48V30.4167H40.8V39.5417H36ZM21.6 30.4167H12C8.68 30.4167 5.8504 28.9333 3.5112 25.9667C1.172 23.0001 0.00160164 19.4139 1.63823e-06 15.2083C-0.00159836 11.0027 1.1688 7.4166 3.5112 4.44996C5.8536 1.48332 8.6832 0 12 0H21.6V6.08333H12C10 6.08333 8.3 6.97049 6.9 8.74479C5.5 10.5191 4.8 12.6736 4.8 15.2083C4.8 17.7431 5.5 19.8976 6.9 21.6719C8.3 23.4462 10 24.3333 12 24.3333H21.6V30.4167ZM14.4 18.25V12.1667H33.6V18.25H14.4ZM48 15.2083H43.2C43.2 12.6736 42.5 10.5191 41.1 8.74479C39.7 6.97049 38 6.08333 36 6.08333H26.4V0H36C39.32 0 42.1504 1.48332 44.4912 4.44996C46.832 7.4166 48.0016 11.0027 48 15.2083Z" fill="#D9D9D9"/>
</svg>
