<svg width="46" height="40" viewBox="0 0 46 40" fill="none" xmlns="http://www.w3.org/2000/svg">
<path d="M6 0V12H2V0H6ZM2 40V28H6V40H2ZM8 20C8 22.22 6.22 24 4 24C3.20888 24 2.43552 23.7654 1.77772 23.3259C1.11992 22.8864 0.607234 22.2616 0.304484 21.5307C0.00173312 20.7998 -0.0774802 19.9956 0.0768607 19.2196C0.231202 18.4437 0.612165 17.731 1.17157 17.1716C1.73098 16.6122 2.44372 16.2312 3.21964 16.0769C3.99556 15.9225 4.79983 16.0017 5.53074 16.3045C6.26164 16.6072 6.88635 17.1199 7.32588 17.7777C7.76541 18.4355 8 19.2089 8 20ZM30 4C38.84 4 46 11.16 46 20C46 28.84 38.84 36 30 36C22.8 36 16.72 31.24 14.7 24.7L10 20L14.7 15.3C16.72 8.76 22.8 4 30 4ZM30 8C23.38 8 18 13.38 18 20C18 26.62 23.38 32 30 32C36.62 32 42 26.62 42 20C42 13.38 36.62 8 30 8ZM28 22V12H31V20.4L37 24L35.36 26.52L28 22Z" fill="#D9D9D9"/>
</svg>
