<svg width="165" height="129" viewBox="0 0 165 129" fill="none" xmlns="http://www.w3.org/2000/svg">
<path d="M0 0V128.651H16.755V12.8094H28.1556C24.8775 11.7429 22.5828 9.26173 22.5828 6.40469C22.5828 3.54764 24.8775 1.06652 28.1556 0H0ZM35.2219 0C38.5 1.06652 40.7947 3.54764 40.7947 6.40469C40.7947 9.26173 38.5 11.7429 35.2219 12.8094H48.4801C46.8411 10.9799 45.894 8.77442 45.894 6.40469C45.894 4.03495 46.8411 1.82951 48.4801 0H35.2219ZM60.8278 0C56.1656 0 52.4503 2.83755 52.4503 6.40469C52.4503 9.97182 56.1656 12.8094 60.8278 12.8094C65.4901 12.8094 69.2053 9.97182 69.2053 6.40469C69.2053 2.83755 65.4901 0 60.8278 0ZM73.1755 0C74.8146 1.82951 75.7616 4.03495 75.7616 6.40469C75.7616 8.77442 74.8146 10.9799 73.1755 12.8094H86.4338C83.1556 11.7429 80.8609 9.26173 80.8609 6.40469C80.8609 3.54764 83.1556 1.06652 86.4338 0H73.1755ZM93.5 0C96.7782 1.06652 99.0728 3.54764 99.0728 6.40469C99.0728 9.26173 96.7782 11.7429 93.5 12.8094H104.901V128.651H121.656V0H93.5ZM156.841 9.08908L145.185 18L149.848 21.5532L161.503 12.6312L156.841 9.08908ZM128.212 26.7326V39.542H142.381C144.238 39.542 144.238 39.2078 144.566 38.7066C144.93 38.1775 144.967 37.5927 144.967 37.5927V28.6819C144.967 28.6819 144.93 28.0971 144.566 27.568C144.238 27.0668 144.238 26.7326 142.417 26.7326H128.212ZM153.344 30.6311V35.6435H165V30.6311H153.344ZM59.4437 34.3347C53.2517 34.9473 47.606 40.4888 47.606 47.701C47.606 51.6552 49.4636 55.1638 52.0861 57.5586L55.1821 60.4268L50.3377 61.123C46.9503 61.6242 44.4735 63.0444 42.3245 65.2721C40.1755 67.4998 38.5728 70.6465 37.4073 74.2665C35.2947 80.7547 34.8576 88.7745 34.7848 95.8197H46.2219L49.3179 127.815C57.2583 129.152 65.6722 129.068 73.3212 127.815L76.053 95.8197H86.8709C86.8709 88.691 86.7252 80.5877 84.8675 73.988C83.8113 70.3959 82.245 67.2492 80.096 65.0493C77.9106 62.7938 75.2517 61.4293 71.4272 60.9559L66.4735 60.399L69.6788 57.3916C72.0828 54.9968 73.7583 51.5438 73.7583 47.701C73.7583 40.0432 67.5298 34.3347 60.7185 34.3347H59.4437ZM149.848 44.7214L145.185 48.2858L156.841 57.1966L161.503 53.6323L149.848 44.7214Z" fill="#E6E6E6"/>
</svg>
