<svg width="36" height="36" viewBox="0 0 36 36" fill="none" xmlns="http://www.w3.org/2000/svg">
<path d="M3.98012 19.7241C4.34714 22.3694 5.4527 24.8576 7.16989 26.903C8.88708 28.9484 11.1463 30.4681 13.6881 31.2876C16.2299 32.1071 18.9513 32.1932 21.5398 31.536C24.1284 30.8787 26.4791 29.5049 28.3221 27.5721C28.1487 27.1675 28.0433 26.737 28.0101 26.2981L28.0001 26.0001L28.0101 25.7001C28.0698 24.9047 28.366 24.1454 28.8605 23.5196C29.355 22.8938 30.0253 22.4301 30.7853 22.1881C31.5453 21.9461 32.3603 21.9369 33.1256 22.1615C33.8909 22.3862 34.5716 22.8345 35.0802 23.4489C35.5888 24.0633 35.9021 24.8157 35.9798 25.6095C36.0576 26.4033 35.8963 27.2023 35.5166 27.9037C35.1369 28.6051 34.5562 29.177 33.8491 29.5459C33.1419 29.9149 32.3406 30.064 31.5481 29.9741C29.2257 32.5444 26.2178 34.3985 22.878 35.3184C19.5382 36.2383 16.0052 36.1859 12.6942 35.1672C9.38322 34.1485 6.43175 32.2059 4.18664 29.5678C1.94154 26.9296 0.49608 23.7054 0.0201217 20.2741C-0.0350903 19.7575 0.112871 19.2397 0.432689 18.8303C0.752507 18.4209 1.21908 18.152 1.73366 18.0805C2.24823 18.0091 2.77043 18.1406 3.18971 18.4474C3.609 18.7541 3.89247 19.212 3.98012 19.7241Z" fill="#E6E6E6"/>
<path d="M18 10C19.5652 10 21.096 10.4592 22.4029 11.3206C23.7097 12.182 24.7352 13.4079 25.3522 14.8464C25.9692 16.2848 26.1507 17.8727 25.8742 19.4133C25.5977 20.9539 24.8753 22.3795 23.7965 23.5136C22.7178 24.6477 21.3301 25.4405 19.8052 25.7937C18.2804 26.1469 16.6854 26.045 15.2179 25.5007C13.7504 24.9563 12.4748 23.9935 11.5491 22.7313C10.6234 21.4692 10.0883 19.9633 10.01 18.4L10 18L10.01 17.6C10.1126 15.5501 10.9992 13.618 12.4864 12.2034C13.9735 10.7889 15.9475 10 18 10Z" fill="#E6E6E6"/>
<path d="M20.284 0.179974C24.2428 0.691129 27.9237 2.48957 30.76 5.29832C33.5962 8.10708 35.4303 11.7704 35.98 15.724C36.0367 16.2412 35.8897 16.7601 35.57 17.1707C35.2504 17.5812 34.7834 17.851 34.268 17.9229C33.7527 17.9947 33.2297 17.8629 32.81 17.5554C32.3903 17.2479 32.1069 16.789 32.02 16.276C31.591 13.1907 30.1594 10.3321 27.9458 8.1405C25.7322 5.94894 22.8594 4.54605 19.77 4.14797C17.56 3.86092 15.3135 4.09805 13.2121 4.8402C11.1107 5.58235 9.21355 6.80867 7.674 8.41997C7.90436 8.95393 8.01552 9.5317 7.99975 10.113C7.98397 10.6943 7.84163 11.2652 7.58264 11.7859C7.32366 12.3066 6.95426 12.7645 6.50018 13.1278C6.0461 13.4911 5.51827 13.7511 4.95345 13.8895C4.38864 14.0279 3.80044 14.0415 3.22983 13.9294C2.65921 13.8173 2.11991 13.582 1.6495 13.2401C1.1791 12.8982 0.788896 12.4579 0.506088 11.9498C0.22328 11.4416 0.0546682 10.8779 0.0120001 10.298L0 9.99997L0.0100002 9.69997C0.050224 9.16403 0.198039 8.6417 0.444618 8.16415C0.691198 7.68661 1.03148 7.26365 1.44516 6.92054C1.85883 6.57743 2.33741 6.32121 2.8523 6.16716C3.3672 6.01312 3.90786 5.96442 4.442 6.02397C6.41402 3.84249 8.88529 2.17135 11.6443 1.15358C14.4032 0.135819 17.3677 -0.198249 20.284 0.179974Z" fill="#E6E6E6"/>
</svg>
