<svg width="141" height="128" viewBox="0 0 141 128" fill="none" xmlns="http://www.w3.org/2000/svg">
<path d="M72.6582 127.686C71.3393 127.686 70.1091 127.362 68.9677 126.714C67.8263 126.066 66.9582 125.208 66.3635 124.139C65.7688 123.07 65.4691 121.888 65.4643 120.592C65.4595 119.296 65.8192 118.055 66.5434 116.868L97.1173 67.2124C97.8367 66.0301 98.736 65.1434 99.815 64.5523C100.894 63.9612 102.033 63.6656 103.232 63.6656C104.431 63.6656 105.57 63.9612 106.649 64.5523C107.728 65.1434 108.628 66.0301 109.347 67.2124L139.921 116.868C140.64 118.05 141 119.292 141 120.592C141 121.893 140.7 123.075 140.101 124.139C139.501 125.203 138.662 126.061 137.583 126.714C136.504 127.367 135.245 127.691 133.806 127.686H72.6582ZM103.232 120.592C104.191 120.592 105.031 120.238 105.75 119.528C106.469 118.819 106.829 117.991 106.829 117.045C106.829 116.1 106.469 115.272 105.75 114.563C105.031 113.853 104.191 113.499 103.232 113.499C102.273 113.499 101.434 113.853 100.714 114.563C99.9949 115.272 99.6352 116.1 99.6352 117.045C99.6352 117.991 99.9949 118.819 100.714 119.528C101.434 120.238 102.273 120.592 103.232 120.592ZM35.4298 113.499C34.111 113.499 32.8808 113.175 31.7394 112.527C30.598 111.879 29.7299 110.961 29.1352 109.774L15.1071 85.1239H25.5383L32.7321 99.3112H49.2781V92.2176H37.0485L29.8546 78.0302H11.1505L0.899235 60.2961C0.659439 59.705 0.450815 59.1138 0.273366 58.5227C0.0959174 57.9315 0.00479592 57.3404 0 56.7493C0 56.2764 0.299745 55.0941 0.899235 53.2024L11.1505 35.4683H29.8546L37.0485 21.281H49.2781V14.1873H32.7321L25.5383 28.3746H15.1071L29.1352 3.72417C29.7347 2.54189 30.6028 1.62681 31.7394 0.978925C32.876 0.331037 34.1086 0.00472911 35.437 0H52.875C54.9133 0 56.623 0.680992 58.0042 2.04297C59.3855 3.40496 60.0737 5.08852 60.0689 7.09366V35.4683H49.2781L42.0842 42.5619H60.0689V63.8429H44.2423L37.0485 49.6556H20.5026L13.3087 56.7493H32.7321L39.926 70.9366H60.0689V100.021L54.1339 109.597C53.7742 110.188 53.4745 110.81 53.2347 111.463C52.9949 112.115 52.7551 112.794 52.5153 113.499H35.4298ZM99.6352 106.405H106.829V85.1239H99.6352V106.405ZM67.2628 88.316V42.5619H85.2474L78.0536 35.4683H67.2628V7.09366C67.2628 5.08379 67.9534 3.40023 69.3346 2.04297C70.7158 0.685721 72.4232 0.00472911 74.4566 0H91.9018C93.2207 0 94.4508 0.326308 95.5922 0.978925C96.7337 1.63154 97.6017 2.54662 98.1964 3.72417L112.224 28.3746H101.793L94.5995 14.1873H78.0536V21.281H90.2832L97.477 35.4683H116.181L126.432 53.2024C126.792 53.7936 127.032 54.3847 127.152 54.9758C127.272 55.567 127.332 56.1581 127.332 56.7493C127.332 56.8675 127.032 58.0498 126.432 60.2961L124.274 64.0203L121.577 59.9414C119.538 56.7493 116.929 54.2074 113.75 52.3157C110.57 50.4241 107.064 49.4783 103.232 49.4783C99.4002 49.4783 95.892 50.4241 92.7075 52.3157C89.523 54.2074 86.9164 56.7493 84.8877 59.9414L67.2628 88.316Z" fill="#E6E6E6"/>
</svg>
