<svg width="36" height="40" viewBox="0 0 36 40" fill="none" xmlns="http://www.w3.org/2000/svg">
<path d="M13.2 29.2L16 26.3L11.7 22L16 17.7L13.2 14.8L6 22L13.2 29.2ZM22.8 29.2L30 22L22.8 14.8L20 17.7L24.3 22L20 26.3L22.8 29.2ZM4 40C2.9 40 1.95867 39.6087 1.176 38.826C0.393333 38.0433 0.00133333 37.1013 0 36V8C0 6.9 0.392 5.95867 1.176 5.176C1.96 4.39333 2.90133 4.00133 4 4H12.4C12.8333 2.8 13.5587 1.83333 14.576 1.1C15.5933 0.366667 16.7347 0 18 0C19.2653 0 20.4073 0.366667 21.426 1.1C22.4447 1.83333 23.1693 2.8 23.6 4H32C33.1 4 34.042 4.392 34.826 5.176C35.61 5.96 36.0013 6.90133 36 8V36C36 37.1 35.6087 38.042 34.826 38.826C34.0433 39.61 33.1013 40.0013 32 40H4ZM4 36H32V8H4V36ZM18 6.5C18.4333 6.5 18.792 6.358 19.076 6.074C19.36 5.79 19.5013 5.432 19.5 5C19.4987 4.568 19.3567 4.21 19.074 3.926C18.7913 3.642 18.4333 3.5 18 3.5C17.5667 3.5 17.2087 3.642 16.926 3.926C16.6433 4.21 16.5013 4.568 16.5 5C16.4987 5.432 16.6407 5.79067 16.926 6.076C17.2113 6.36133 17.5693 6.50267 18 6.5Z" fill="#D9D9D9"/>
</svg>
