<svg width="44" height="40" viewBox="0 0 44 40" fill="none" xmlns="http://www.w3.org/2000/svg">
<path d="M4 4V28H40V4H4ZM4 0H40C41.0609 0 42.0783 0.421427 42.8284 1.17157C43.5786 1.92172 44 2.93913 44 4V28C44 29.06 43.58 30.08 42.82 30.82C42.08 31.58 41.06 32 40 32H26V36H30V40H14V36H18V32H4C2.94 32 1.92 31.58 1.18 30.82C0.42 30.08 0 29.06 0 28V4C0 1.78 1.78 0 4 0ZM19.68 13.86C20.3 13.26 21.14 12.9 22 12.9C22.86 12.92 23.7 13.26 24.32 13.88C24.92 14.48 25.28 15.32 25.28 16.18C25.28 17.06 24.92 17.88 24.32 18.5C23.7 19.12 22.86 19.46 22 19.46C21.14 19.46 20.3 19.1 19.68 18.5C19.08 17.88 18.72 17.06 18.72 16.18C18.72 15.32 19.08 14.48 19.68 13.86ZM18.14 20C18.64 20.519 19.2396 20.9318 19.9028 21.2138C20.566 21.4958 21.2793 21.6411 22 21.6411C22.7207 21.6411 23.434 21.4958 24.0972 21.2138C24.7604 20.9318 25.36 20.519 25.86 20C26.88 19 27.46 17.62 27.46 16.18C27.46 14.74 26.88 13.34 25.86 12.32C24.84 11.3 23.44 10.72 22 10.72C20.56 10.72 19.16 11.3 18.14 12.32C17.12 13.34 16.54 14.74 16.54 16.18C16.54 17.62 17.12 19 18.14 20ZM10 16.18C10.9477 13.7694 12.5993 11.6999 14.7395 10.2409C16.8798 8.78195 19.4098 8.0011 22 8C27.46 8 32.12 11.4 34 16.18C33.0592 18.5954 31.4095 20.6695 29.2676 22.1296C27.1257 23.5896 24.5921 24.3672 22 24.36C16.54 24.36 11.88 21 10 16.18Z" fill="#D9D9D9"/>
</svg>
