<svg width="39" height="41" viewBox="0 0 39 41" fill="none" xmlns="http://www.w3.org/2000/svg">
<path d="M10.25 17.9375H17.9375V41H10.25V17.9375ZM12.8125 38.4375H15.375V20.5H12.8125V38.4375ZM20.5 23.0625H28.1875V41H20.5V23.0625ZM23.0625 38.4375H25.625V25.625H23.0625V38.4375ZM0 28.1875H7.6875V41H0V28.1875ZM2.5625 38.4375H5.125V30.75H2.5625V38.4375ZM30.75 12.8125H38.4375V41H30.75V12.8125ZM33.3125 38.4375H35.875V15.375H33.3125V38.4375ZM27.8071 12.4321C28.0607 12.9793 28.1875 13.5332 28.1875 14.0938C28.1875 14.6276 28.0874 15.1281 27.8872 15.5952C27.687 16.0623 27.4134 16.4694 27.0664 16.8164C26.7194 17.1634 26.3123 17.437 25.8452 17.6372C25.3781 17.8374 24.8776 17.9375 24.3438 17.9375C23.8099 17.9375 23.3094 17.8374 22.8423 17.6372C22.3752 17.437 21.9681 17.1634 21.6211 16.8164C21.2741 16.4694 21.0005 16.0623 20.8003 15.5952C20.6001 15.1281 20.5 14.6276 20.5 14.0938V13.8535C20.5 13.7734 20.5067 13.6934 20.52 13.6133L16.7563 11.7314C16.4093 12.0785 16.0023 12.3454 15.5352 12.5322C15.068 12.7191 14.5876 12.8125 14.0938 12.8125C13.5332 12.8125 12.9793 12.6857 12.4321 12.4321L7.30713 17.5571C7.56071 18.1043 7.6875 18.6582 7.6875 19.2188C7.6875 19.7526 7.5874 20.2531 7.38721 20.7202C7.18701 21.1873 6.91341 21.5944 6.56641 21.9414C6.2194 22.2884 5.81234 22.562 5.34521 22.7622C4.87809 22.9624 4.3776 23.0625 3.84375 23.0625C3.3099 23.0625 2.80941 22.9624 2.34229 22.7622C1.87516 22.562 1.4681 22.2884 1.12109 21.9414C0.774089 21.5944 0.500488 21.1873 0.300293 20.7202C0.100098 20.2531 0 19.7526 0 19.2188C0 18.6849 0.100098 18.1844 0.300293 17.7173C0.500488 17.2502 0.774089 16.8431 1.12109 16.4961C1.4681 16.1491 1.87516 15.8755 2.34229 15.6753C2.80941 15.4751 3.3099 15.375 3.84375 15.375C4.4043 15.375 4.95817 15.5018 5.50537 15.7554L10.6304 10.6304C10.3768 10.0832 10.25 9.5293 10.25 8.96875C10.25 8.4349 10.3501 7.93441 10.5503 7.46729C10.7505 7.00016 11.0241 6.5931 11.3711 6.24609C11.7181 5.89909 12.1252 5.62549 12.5923 5.42529C13.0594 5.2251 13.5599 5.125 14.0938 5.125C14.6276 5.125 15.1281 5.2251 15.5952 5.42529C16.0623 5.62549 16.4694 5.89909 16.8164 6.24609C17.1634 6.5931 17.437 7.00016 17.6372 7.46729C17.8374 7.93441 17.9375 8.4349 17.9375 8.96875V9.20898C17.9375 9.28906 17.9308 9.36914 17.9175 9.44922L21.6812 11.3311C22.0282 10.984 22.4352 10.7171 22.9023 10.5303C23.3695 10.3434 23.8499 10.25 24.3438 10.25C24.9043 10.25 25.4582 10.3768 26.0054 10.6304L31.1304 5.50537C30.8768 4.95817 30.75 4.4043 30.75 3.84375C30.75 3.3099 30.8501 2.80941 31.0503 2.34229C31.2505 1.87516 31.5241 1.4681 31.8711 1.12109C32.2181 0.774089 32.6252 0.500488 33.0923 0.300293C33.5594 0.100098 34.0599 0 34.5938 0C35.1276 0 35.6281 0.100098 36.0952 0.300293C36.5623 0.500488 36.9694 0.774089 37.3164 1.12109C37.6634 1.4681 37.937 1.87516 38.1372 2.34229C38.3374 2.80941 38.4375 3.3099 38.4375 3.84375C38.4375 4.3776 38.3374 4.87809 38.1372 5.34521C37.937 5.81234 37.6634 6.2194 37.3164 6.56641C36.9694 6.91341 36.5623 7.18701 36.0952 7.38721C35.6281 7.5874 35.1276 7.6875 34.5938 7.6875C34.0332 7.6875 33.4793 7.56071 32.9321 7.30713L27.8071 12.4321ZM3.84375 20.5C4.19076 20.5 4.49105 20.3732 4.74463 20.1196C4.99821 19.866 5.125 19.5658 5.125 19.2188C5.125 18.8717 4.99821 18.5715 4.74463 18.3179C4.49105 18.0643 4.19076 17.9375 3.84375 17.9375C3.49674 17.9375 3.19645 18.0643 2.94287 18.3179C2.68929 18.5715 2.5625 18.8717 2.5625 19.2188C2.5625 19.5658 2.68929 19.866 2.94287 20.1196C3.19645 20.3732 3.49674 20.5 3.84375 20.5ZM34.5938 2.5625C34.2467 2.5625 33.9465 2.68929 33.6929 2.94287C33.4393 3.19645 33.3125 3.49674 33.3125 3.84375C33.3125 4.19076 33.4393 4.49105 33.6929 4.74463C33.9465 4.99821 34.2467 5.125 34.5938 5.125C34.9408 5.125 35.241 4.99821 35.4946 4.74463C35.7482 4.49105 35.875 4.19076 35.875 3.84375C35.875 3.49674 35.7482 3.19645 35.4946 2.94287C35.241 2.68929 34.9408 2.5625 34.5938 2.5625ZM14.0938 10.25C14.4408 10.25 14.741 10.1232 14.9946 9.86963C15.2482 9.61605 15.375 9.31575 15.375 8.96875C15.375 8.62175 15.2482 8.32145 14.9946 8.06787C14.741 7.81429 14.4408 7.6875 14.0938 7.6875C13.7467 7.6875 13.4465 7.81429 13.1929 8.06787C12.9393 8.32145 12.8125 8.62175 12.8125 8.96875C12.8125 9.31575 12.9393 9.61605 13.1929 9.86963C13.4465 10.1232 13.7467 10.25 14.0938 10.25ZM24.3438 15.375C24.6908 15.375 24.991 15.2482 25.2446 14.9946C25.4982 14.741 25.625 14.4408 25.625 14.0938C25.625 13.7467 25.4982 13.4465 25.2446 13.1929C24.991 12.9393 24.6908 12.8125 24.3438 12.8125C23.9967 12.8125 23.6965 12.9393 23.4429 13.1929C23.1893 13.4465 23.0625 13.7467 23.0625 14.0938C23.0625 14.4408 23.1893 14.741 23.4429 14.9946C23.6965 15.2482 23.9967 15.375 24.3438 15.375Z" fill="#D9D9D9"/>
</svg>
