<svg width="121" height="129" viewBox="0 0 121 129" fill="none" xmlns="http://www.w3.org/2000/svg">
<path fill-rule="evenodd" clip-rule="evenodd" d="M90.2737 5.44225C89.0721 3.3987 87.3019 1.80475 85.2094 0.882259C83.117 -0.0402319 80.8064 -0.245362 78.5992 0.295429L62.9345 4.1254C61.3292 4.51815 59.661 4.51815 58.0557 4.1254L42.391 0.295429C40.1838 -0.245362 37.8732 -0.0402319 35.7807 0.882259C33.6883 1.80475 31.918 3.3987 30.7165 5.44225L22.1785 19.9461C21.3073 21.4298 20.1311 22.6818 18.7371 23.6184L5.11112 32.7064C3.19457 33.9843 1.69928 35.8655 0.832809 38.0889C-0.0336646 40.3124 -0.228342 42.7678 0.275799 45.1144L3.87397 61.8068C4.24162 63.5126 4.24162 65.2849 3.87397 66.9907L0.275799 83.6738C-0.230301 86.0218 -0.0366037 88.4792 0.829963 90.7046C1.69653 92.93 3.19291 94.8127 5.11112 96.0911L18.7371 105.179C20.1311 106.106 21.3072 107.358 22.1872 108.842L30.7252 123.346C33.1821 127.528 37.8693 129.596 42.391 128.493L58.0557 124.663C59.661 124.27 61.3292 124.27 62.9345 124.663L78.6079 128.493C80.8138 129.032 83.1225 128.825 85.2132 127.903C87.3039 126.981 89.0727 125.388 90.2737 123.346L98.8117 108.842C99.6829 107.358 100.859 106.106 102.253 105.179L115.888 96.0911C117.806 94.8108 119.302 92.926 120.167 90.6989C121.032 88.4717 121.223 86.0129 120.714 83.6645L117.125 66.9907C116.756 65.2819 116.756 63.5063 117.125 61.7975L120.723 45.1144C121.23 42.7674 121.038 40.3107 120.173 38.0854C119.308 35.8601 117.813 33.9768 115.896 32.6972L102.262 23.6091C100.87 22.68 99.6933 21.4278 98.8204 19.9461L90.2737 5.44225ZM85.8914 43.7141C86.4303 42.6594 86.5638 41.4233 86.2638 40.266C85.9639 39.1086 85.2539 38.1202 84.2833 37.5087C83.3126 36.8972 82.157 36.7103 81.0595 36.9873C79.962 37.2643 79.0082 37.9836 78.3988 38.9939L55.6162 80.0386L41.8595 66.017C41.4514 65.5709 40.9631 65.217 40.4237 64.9762C39.8842 64.7353 39.3048 64.6126 38.7198 64.6153C38.1349 64.6181 37.5565 64.7461 37.019 64.992C36.4816 65.2378 35.9962 65.5963 35.5918 66.0461C35.1873 66.4959 34.8721 67.0278 34.665 67.6101C34.4578 68.1924 34.363 68.8131 34.3861 69.4352C34.4092 70.0574 34.5498 70.6682 34.7995 71.2312C35.0491 71.7943 35.4028 72.2981 35.8393 72.7125L53.5601 90.7866C54.0344 91.2693 54.605 91.6318 55.2293 91.8468C55.8537 92.0619 56.5156 92.124 57.1656 92.0286C57.8157 91.9332 58.4371 91.6827 58.9835 91.2958C59.5298 90.9089 59.987 90.3957 60.3208 89.7943L85.8914 43.7141Z" fill="#E6E6E6"/>
</svg>
